REM DIRINDEX 1\5,1\2\6,1\2\7,1\3\8,1\3\9,1\4\10,1\4\11,1\4\12
REM DIRNAME cjc026,folder01,folder02,folder03,folder04,folder05,folder06,folder07,folder08,folder09,folder10,folder11
TITLE ""
FILE "EJE_DB3000_5th_4B_36.mp3" MP3
  TRACK 01 AUDIO
    TITLE "0:"
    INDEX 01 00:00:00
  TRACK 02 AUDIO
    TITLE "10:cjc026_09567"
    INDEX 01 00:00:08
  TRACK 03 AUDIO
    TITLE "0:"
    INDEX 01 00:01:24
  TRACK 04 AUDIO
    TITLE "11:cjc026_09568"
    INDEX 01 00:01:60
  TRACK 05 AUDIO
    TITLE "0:"
    INDEX 01 00:03:15
  TRACK 06 AUDIO
    TITLE "12:cjc026_09569"
    INDEX 01 00:03:50
  TRACK 07 AUDIO
    TITLE "0:"
    INDEX 01 00:04:67
  TRACK 08 AUDIO
    TITLE "10:cjc026_09570"
    INDEX 01 00:05:27
  TRACK 09 AUDIO
    TITLE "0:"
    INDEX 01 00:06:52
  TRACK 10 AUDIO
    TITLE "11:cjc026_09571"
    INDEX 01 00:07:12
  TRACK 11 AUDIO
    TITLE "0:"
    INDEX 01 00:08:20
  TRACK 12 AUDIO
    TITLE "12:cjc026_09572"
    INDEX 01 00:08:53
  TRACK 13 AUDIO
    TITLE "0:"
    INDEX 01 00:10:06
  TRACK 14 AUDIO
    TITLE "10:cjc026_09573"
    INDEX 01 00:10:38
  TRACK 15 AUDIO
    TITLE "0:"
    INDEX 01 00:11:52
  TRACK 16 AUDIO
    TITLE "11:cjc026_09574"
    INDEX 01 00:12:12
  TRACK 17 AUDIO
    TITLE "0:"
    INDEX 01 00:13:48
  TRACK 18 AUDIO
    TITLE "12:cjc026_09575"
    INDEX 01 00:14:11
  TRACK 19 AUDIO
    TITLE "0:"
    INDEX 01 00:15:22
  TRACK 20 AUDIO
    TITLE "10:cjc026_09576"
    INDEX 01 00:15:60
  TRACK 21 AUDIO
    TITLE "0:"
    INDEX 01 00:17:02
  TRACK 22 AUDIO
    TITLE "11:cjc026_09577"
    INDEX 01 00:17:39
  TRACK 23 AUDIO
    TITLE "0:"
    INDEX 01 00:18:51
  TRACK 24 AUDIO
    TITLE "12:cjc026_09578"
    INDEX 01 00:19:11
  TRACK 25 AUDIO
    TITLE "0:"
    INDEX 01 00:20:30
  TRACK 26 AUDIO
    TITLE "10:cjc026_09579"
    INDEX 01 00:20:66
  TRACK 27 AUDIO
    TITLE "0:"
    INDEX 01 00:22:05
  TRACK 28 AUDIO
    TITLE "11:cjc026_09580"
    INDEX 01 00:22:40
  TRACK 29 AUDIO
    TITLE "0:"
    INDEX 01 00:23:70
  TRACK 30 AUDIO
    TITLE "12:cjc026_09581"
    INDEX 01 00:24:30
  TRACK 31 AUDIO
    TITLE "0:"
    INDEX 01 00:25:47
  TRACK 32 AUDIO
    TITLE "10:cjc026_09582"
    INDEX 01 00:26:07
  TRACK 33 AUDIO
    TITLE "0:"
    INDEX 01 00:27:21
  TRACK 34 AUDIO
    TITLE "11:cjc026_09583"
    INDEX 01 00:27:59
  TRACK 35 AUDIO
    TITLE "0:"
    INDEX 01 00:29:14
  TRACK 36 AUDIO
    TITLE "12:cjc026_09584"
    INDEX 01 00:29:52
  TRACK 37 AUDIO
    TITLE "0:"
    INDEX 01 00:30:66
  TRACK 38 AUDIO
    TITLE "10:cjc026_09585"
    INDEX 01 00:31:26
  TRACK 39 AUDIO
    TITLE "0:"
    INDEX 01 00:32:54
  TRACK 40 AUDIO
    TITLE "11:cjc026_09586"
    INDEX 01 00:33:14
  TRACK 41 AUDIO
    TITLE "0:"
    INDEX 01 00:34:33
  TRACK 42 AUDIO
    TITLE "12:cjc026_09587"
    INDEX 01 00:34:66
  TRACK 43 AUDIO
    TITLE "0:"
    INDEX 01 00:36:21
  TRACK 44 AUDIO
    TITLE "10:cjc026_09588"
    INDEX 01 00:36:54
  TRACK 45 AUDIO
    TITLE "0:"
    INDEX 01 00:37:70
  TRACK 46 AUDIO
    TITLE "11:cjc026_09589"
    INDEX 01 00:38:33
  TRACK 47 AUDIO
    TITLE "0:"
    INDEX 01 00:39:45
  TRACK 48 AUDIO
    TITLE "12:cjc026_09590"
    INDEX 01 00:40:07
  TRACK 49 AUDIO
    TITLE "0:"
    INDEX 01 00:41:24
  TRACK 50 AUDIO
    TITLE "10:cjc026_09591"
    INDEX 01 00:41:59
  TRACK 51 AUDIO
    TITLE "0:"
    INDEX 01 00:43:04
  TRACK 52 AUDIO
    TITLE "11:cjc026_09592"
    INDEX 01 00:43:42
  TRACK 53 AUDIO
    TITLE "0:"
    INDEX 01 00:45:00
  TRACK 54 AUDIO
    TITLE "12:cjc026_09593"
    INDEX 01 00:45:37
  TRACK 55 AUDIO
    TITLE "0:"
    INDEX 01 00:46:54
  TRACK 56 AUDIO
    TITLE "10:cjc026_09594"
    INDEX 01 00:47:17
  TRACK 57 AUDIO
    TITLE "0:"
    INDEX 01 00:48:28
  TRACK 58 AUDIO
    TITLE "11:cjc026_09595"
    INDEX 01 00:48:66
  TRACK 59 AUDIO
    TITLE "0:"
    INDEX 01 00:50:27
  TRACK 60 AUDIO
    TITLE "12:cjc026_09596"
    INDEX 01 00:50:62
  TRACK 61 AUDIO
    TITLE "0:"
    INDEX 01 00:52:01
  TRACK 62 AUDIO
    TITLE "10:cjc026_09597"
    INDEX 01 00:52:36
  TRACK 63 AUDIO
    TITLE "0:"
    INDEX 01 00:53:56
  TRACK 64 AUDIO
    TITLE "11:cjc026_09598"
    INDEX 01 00:54:21
  TRACK 65 AUDIO
    TITLE "0:"
    INDEX 01 00:55:41
  TRACK 66 AUDIO
    TITLE "12:cjc026_09599"
    INDEX 01 00:56:01
  TRACK 67 AUDIO
    TITLE "0:"
    INDEX 01 00:57:20
  TRACK 68 AUDIO
    TITLE "10:cjc026_09600"
    INDEX 01 00:57:61
  TRACK 69 AUDIO
    TITLE "0:"
    INDEX 01 00:59:16
  TRACK 70 AUDIO
    TITLE "11:cjc026_09601"
    INDEX 01 00:59:54
  TRACK 71 AUDIO
    TITLE "0:"
    INDEX 01 01:01:15
  TRACK 72 AUDIO
    TITLE "12:cjc026_09602"
    INDEX 01 01:01:50
  TRACK 73 AUDIO
    TITLE "0:"
    INDEX 01 01:03:08
  TRACK 74 AUDIO
    TITLE "10:cjc026_09603"
    INDEX 01 01:03:45
  TRACK 75 AUDIO
    TITLE "0:"
    INDEX 01 01:04:68
  TRACK 76 AUDIO
    TITLE "11:cjc026_09604"
    INDEX 01 01:05:28
  TRACK 77 AUDIO
    TITLE "0:"
    INDEX 01 01:06:69
  TRACK 78 AUDIO
    TITLE "12:cjc026_09605"
    INDEX 01 01:07:29
  TRACK 79 AUDIO
    TITLE "0:"
    INDEX 01 01:08:51
  TRACK 80 AUDIO
    TITLE "10:cjc026_09606"
    INDEX 01 01:09:11
  TRACK 81 AUDIO
    TITLE "0:"
    INDEX 01 01:10:42
  TRACK 82 AUDIO
    TITLE "11:cjc026_09607"
    INDEX 01 01:11:02
  TRACK 83 AUDIO
    TITLE "0:"
    INDEX 01 01:13:43
  TRACK 84 AUDIO
    TITLE "12:cjc026_09608"
    INDEX 01 01:14:03
  TRACK 85 AUDIO
    TITLE "0:"
    INDEX 01 01:15:31
